# xmcd CD database file
#
# Track frame offsets:
#	150
#	16575
#	35800
#	53875
#	72250
#	89350
#	107612
#	122662
#	142650
#	163112
#	177100
#	192825
#	213500
#	228487
#	255362
#	272787
#	292000
#	313512
#
# Disc length: 4424 seconds
#
# Revision: 1
# Processed by: cddbd v1.5.2PL0 Copyright (c) Steve Scherf et al.
# Submitted via: CDex 1.70beta2
#
DISCID=fa114612
DTITLE=Various Artist - Black Dance
DYEAR=1995
DGENRE=R&B
TTITLE0=Dana Dawson - 3 is family
TTITLE1=Chaka Demus and Pliers - Love you like crazy
TTITLE2=Smooth - It's summertime
TTITLE3=Adina Howard - Freak like me
TTITLE4=Truce - Pump it
TTITLE5=Jodeci - Freek in you
TTITLE6=Ce Ce Rogers - No love lost
TTITLE7=Mary J Blige - Be happy
TTITLE8=I on U - Waterfalls
TTITLE9=Colonel Abrams - I'm caught up
TTITLE10=Aaliyah - Down with the clique
TTITLE11=Soul For Real - Candy rain
TTITLE12=M-Five - Lift me up
TTITLE13=Lisa Fischer - Send the message of love
TTITLE14=Joyce Sims - Who's crying now?
TTITLE15=Nuttin' Nyce - Froggy style
TTITLE16=Beverly Knight - Flavour of the old school
TTITLE17=Devall - I'll do
EXTD=ZYX Music\r\naus der VIVA Werbung YEAR: 1995
EXTT0=
EXTT1=
EXTT2=
EXTT3=
EXTT4=
EXTT5=
EXTT6=
EXTT7=
EXTT8=
EXTT9=
EXTT10=
EXTT11=
EXTT12=
EXTT13=
EXTT14=
EXTT15=
EXTT16=
EXTT17=
PLAYORDER=
